<?xml version="1.0" encoding="iso-8859-1"?>
<!-- Generator: Adobe Illustrator 24.2.3, SVG Export Plug-In . SVG Version: 6.00 Build 0)  -->
<svg version="1.1" id="&#x56FE;&#x5C42;_1" xmlns="http://www.w3.org/2000/svg" xmlns:xlink="http://www.w3.org/1999/xlink" x="0px"
	 y="0px" viewBox="0 0 256 256" style="enable-background:new 0 0 256 256;" xml:space="preserve">
<polygon style="fill:none;" points="-75.174,184.913 -75.489,184.763 -75.792,184.938 -75.747,184.591 -76.007,184.358 
	-75.663,184.293 -75.521,183.974 -75.354,184.281 -75.006,184.318 -75.247,184.571 "/>
<g id="XMLID_1_">
	<g>
		<path style="fill:#2091DC;" d="M233.919,107.139c0.604,6.448,0.927,13.178,0.927,20.176c0,13.003-0.994,25.012-2.955,36.041
			l-56.042-33.676c0.054-2.969,0-5.937-0.188-8.785l56.942-23.991C233.126,100.248,233.583,103.646,233.919,107.139z"/>
		<path style="fill:#0E65B6;" d="M232.602,96.903l-56.942,23.991c-0.054-0.887-0.121-1.76-0.201-2.606
			c-1.518-15.864-7.2-28.008-17.046-36.43c-15.421-14.508-44.45-9.134-64.223-10.142c-4.634-0.282-7.831,0.846-9.994,2.902
			L21.168,36.737v-2.713c0-10.908,2.445-18.806,7.321-23.696s12.802-7.334,23.709-7.334h65.996c17.167,0,31.876,1.585,44.167,4.769
			c12.278,3.184,23.427,9.161,33.435,17.906C215.636,42.674,227.901,66.424,232.602,96.903z"/>
		<path style="fill:#31A9E8;" d="M175.848,129.679l56.042,33.676c-0.296,1.706-0.618,3.399-0.981,5.051
			c-0.296,1.437-0.954,4.285-0.954,4.285c-0.013,0.027-0.027,0.067-0.054,0.107c-2.593,10.652-6.3,20.364-11.096,29.123
			c-5.454,9.954-12.439,18.846-20.982,26.691c-6.703,6.018-14.024,10.854-22.003,14.494c-7.952,3.64-16.496,6.193-25.643,7.67
			c-9.175,1.478-19.478,2.216-30.949,2.216H53.219c-9.202,0-16.133-1.384-20.794-4.178c-4.688-2.781-7.724-6.703-9.148-11.767
			c-1.424-5.051-2.109-11.619-2.109-19.693v-20.902v-10.491l59.239-24.958c0,7.321-1.478,16.751,4.943,20.633
			c5.024,3.56,32.481,1.236,38.821,1.867c23.508,1.719,44.705-12.506,49.487-35.866c0.013-0.013,0.013-0.027,0.027-0.054
			C175.002,142.252,175.7,135.952,175.848,129.679z"/>
		<path style="fill:#107AD1;" d="M21.168,36.737l63.027,37.881c-3.761,3.573-4.366,9.954-3.882,16.67v0.013v66.923
			c0.081,0.873,0.107,1.813,0.094,2.781l-59.239,24.958V46.811l0.013-0.027l-0.013-0.013V36.737z"/>
	</g>
	<g>
	</g>
</g>
</svg>
